<svg id="Capa_1" data-name="Capa 1" xmlns="http://www.w3.org/2000/svg" viewBox="0 0 1280 800"><defs><style>.cls-1{font-size:110px;}.cls-1,.cls-9{fill:#25387f;}.cls-1,.cls-8{font-family:DINCondensed-Bold, DIN Condensed;font-weight:700;}.cls-2{letter-spacing:-0.05em;}.cls-3{letter-spacing:-0.01em;}.cls-4{letter-spacing:-0.01em;}.cls-5{letter-spacing:0em;}.cls-6{letter-spacing:-0.02em;}.cls-7{letter-spacing:0em;}.cls-8{font-size:297.25px;}.cls-10,.cls-8{fill:#63c4d9;}</style></defs><title>Mesa de trabajo 2</title><text class="cls-1" transform="translate(644.6 93.93)">LABOR<tspan class="cls-2" x="226.05" y="0">A</tspan><tspan class="cls-3" x="264.77" y="0">T</tspan><tspan x="299.97" y="0">ORIO</tspan><tspan x="0" y="138">DE SENSADO</tspan><tspan x="0" y="276">UNIFICADO</tspan><tspan x="0" y="414">REM</tspan><tspan class="cls-4" x="148.72" y="414">OT</tspan><tspan class="cls-5" x="229.46" y="414">O</tspan><tspan x="0" y="552">CON INTELIGENCIA</tspan><tspan x="0" y="690">A</tspan><tspan class="cls-6" x="44.77" y="690">R</tspan><tspan class="cls-7" x="89.65" y="690">TIFICIAL</tspan></text><text class="cls-8" transform="translate(48.8 784.94)">SUR<tspan class="cls-9" x="373.94" y="0">iA</tspan></text><path class="cls-9" d="M634.06,162.64a10.21,10.21,0,0,0-2.91-7.71q-14.71-14.6-29.46-29.18l-4.92-5L494.18,18a10.24,10.24,0,0,0-7.55-3.29q-64.38.09-128.78.15H342.91c-.83-.05-1.66-.15-2.49-.15q-80.4,0-160.82-.06c-4.21,0-7.2,1.74-10,4.6Q132.92,56,96.19,92.74c-2.23,2.24-4.06,3-7.34,2a27,27,0,0,0-31.29,11.6A27.44,27.44,0,0,0,92.43,145.8c11.2-5.16,17.11-16.36,15.36-29.11.23-3.69-3.74-7.79,1.06-11q34.52-34.38,69-68.82a12.3,12.3,0,0,1,9.59-4q145.19.15,290.38,0a11.83,11.83,0,0,1,9.2,3.77q62.79,63,125.81,125.81a9.6,9.6,0,0,1,3.09,7.45c-.11,21.49-.78,43,.23,64.46.56,11.87-2.31,20.85-11.81,28-2.51,1.9-4.18,2.7-7.41,1.77-20.52-5.92-39.43,12.05-34.5,32.55a27.39,27.39,0,0,0,33.37,20.28,27.11,27.11,0,0,0,19.53-34.5c-1-3.23-.54-5.17,1.87-7.38,4.43-4,8.53-8.43,12.83-12.61a12.31,12.31,0,0,0,4.08-9.28Q634,207.87,634.06,162.64ZM345.32,15.25c-.33,0-.66-.05-1-.09Z"/><path class="cls-9" d="M259.38,326.5a26.88,26.88,0,0,0-30.72,13c-1.77,3.21-3.6,4.41-7.28,4.39q-48-.22-95.94,0a10.14,10.14,0,0,1-7.89-3.23Q85.69,308.56,53.6,276.69a10.12,10.12,0,0,1-3.36-7.87q.19-28.48,0-57c0-3.17.79-5,3.81-6.64a27,27,0,0,0,13.82-30.81,27.47,27.47,0,0,0-53.19-.33c-3.33,12.36,2.08,24.9,13.83,31.23,2.79,1.51,3.61,3.22,3.57,6.24-.17,10.65-.07,21.32-.07,32,0,10.16.16,20.32-.07,30.48a15.18,15.18,0,0,0,5,11.92q35.29,35,70.27,70.35a18.68,18.68,0,0,0,14.53,6.09c33-.2,66-.05,98.94-.18,3.89,0,6.18.91,8.22,4.6,6.08,11,18.73,16,30.82,12.74a27.45,27.45,0,0,0-.33-53Z"/><path class="cls-9" d="M586.84,332.86a27.52,27.52,0,0,0-13.35,51.44c5.72,3.26,6,4.89,1.35,9.56-10.57,10.63-21.26,21.14-31.73,31.87a11.09,11.09,0,0,1-8.83,3.51c-14.16-.15-28.33.06-42.48-.13a15.25,15.25,0,0,0-11.92,5q-17.1,17.52-34.64,34.62a16.76,16.76,0,0,0-5.53,13.2c.21,25.32,0,50.64.16,76,0,3.23-.91,5-3.86,6.57a27.36,27.36,0,1,0,39.43,31.4c3.28-12-1.71-24.92-12.68-30.85-3.89-2.11-4.91-4.48-4.82-8.58.25-11.49.09-23,.09-34.49,0-11.82.1-23.65-.07-35.48a9.87,9.87,0,0,1,3.34-7.84q14.13-13.78,27.92-27.91a9.92,9.92,0,0,1,7.86-3.3c14.66.15,29.32,0,44,.1a13.32,13.32,0,0,0,10.25-4.16Q571.53,423,592,402.75c2.95-2.91,4.6-6.13,4.13-10.21s.81-6.46,4.73-8.59c11-6,16-18.75,12.7-30.85A27.66,27.66,0,0,0,586.84,332.86Z"/><path class="cls-9" d="M353.32,284.61c-2.36,2.37-4.31,3.17-7.78,2.11a27,27,0,0,0-31.45,12.36,27.5,27.5,0,0,0,37.47,37.65,27,27,0,0,0,12.52-31.37c-1.11-3.68-.16-5.67,2.34-8.15,27.65-27.48,55.14-55.13,82.83-82.58A17.24,17.24,0,0,0,454.9,201c-.32-13.49,0-27-.18-40.49-.05-3.58.91-5.55,4.24-7.35a27,27,0,0,0,11.88-34.86,27.4,27.4,0,0,0-33.66-15.13c-13.32,4.24-20.94,17.43-18.21,31.5a8.54,8.54,0,0,0,1.66,5.37h0c2.21,6.35,6.73,10.68,12.55,13.58,2.67,1.33,3.49,3,3.47,5.83-.12,12-.22,24,.05,36a12.61,12.61,0,0,1-4.19,10.06Q392.78,244.9,353.32,284.61Z"/><path class="cls-10" d="M576.6,240.07a27.46,27.46,0,0,0-1.1-52.75,26.88,26.88,0,0,0-30.75,13c-1.9,3.46-3.92,4.58-7.71,4.49-10.66-.25-21.32,0-32-.15A14.28,14.28,0,0,0,494,209.24c-22.19,22.33-44.57,44.47-66.67,66.89-3.62,3.66-6.6,5-11.93,3.6-11.83-3.15-24.14,3-29.82,13.87a27.48,27.48,0,0,0,39.07,36,27,27,0,0,0,11.44-30.92c-1.17-3.54-.2-5.45,2.12-7.75,18.56-18.42,37.43-36.56,55.36-55.58,8.7-9.22,17.36-15.84,30.66-12.37,4.33,0,8.68.22,13-.07,3.61-.25,5.58.93,7.38,4.23A27,27,0,0,0,576.6,240.07Z"/><path class="cls-10" d="M407.15,511.09c-3.26-1.74-4-3.75-4-7,.13-10.65-.25-21.32.14-32,.23-6.32-1.71-11-6.27-15.42-20.1-19.69-39.81-39.79-59.88-59.51-3.37-3.31-5-6.18-3-10.74a13.51,13.51,0,0,0,.72-4.58c.15-17.2-13.38-30.1-29-29-16.21,1.18-28.08,15.73-25.56,31.35,2.64,16.36,18.09,26.92,33.79,22.56,4.4-1.22,6.88-.2,9.87,2.83q28.6,29,57.57,57.58a10.52,10.52,0,0,1,3.4,8.35q-.27,14.47,0,29c.05,3.19-.84,4.94-3.85,6.54a26.92,26.92,0,0,0-13.62,30.89,27.48,27.48,0,0,0,53.07.54A27,27,0,0,0,407.15,511.09Z"/><path class="cls-10" d="M221.92,51.91a27.48,27.48,0,0,0-37.15,37.94,27,27,0,0,0,31,12.29c3.57-1.08,5.63-.49,8.18,2.09,20.15,20.37,40.52,40.52,60.66,60.9a15.34,15.34,0,0,0,12,4.88c15.16-.19,30.32.07,45.48-.16,4.42-.07,7.1.86,9.41,5.19,5.19,9.69,16.38,14.61,27.11,13,11.31-1.73,19.78-9.29,22.4-20a6.21,6.21,0,0,0,.22-.81c1.73-6.49,1.45-12.76-2.27-18.67-4.87-10-13.07-14.86-24-15s-19.21,4.92-24.38,14.53c-1.48,2.74-3.07,3.73-6.15,3.7q-21.48-.24-43,0a9.46,9.46,0,0,1-7.41-3.16q-28.17-28.37-56.56-56.52c-2.92-2.88-3.92-5.19-2.69-9.43C238.31,70.55,232.79,58.08,221.92,51.91Z"/><path class="cls-10" d="M362.63,403.55c11.95,3.18,24.44-1.58,30.5-12.39,2.25-4,4.82-5.09,9.05-5,8.49.27,17,0,25.48.1a14.3,14.3,0,0,0,11.1-4.6c9.88-10.13,20.74-19.42,29.77-30.24,9.26-11.09,19.76-16.09,34.1-14,3.93.56,6.37,1.1,8.49,4.92,6.84,12.36,22.31,17,35.13,11s19.16-20.86,14.26-34c-4.1-11-12.29-17.37-24-18.2-11.06-.78-19.94,3.85-25.41,13.54-2.16,3.83-4.51,5-8.62,4.79-7-.3-14,.08-21-.13a13.92,13.92,0,0,0-11.06,4.6c-13.32,13.53-26.88,26.82-40.18,40.37a10.77,10.77,0,0,1-8.77,3.57c-7-.24-14-.21-21,0-3.18.09-5.05-.8-6.64-3.8-3.94-7.42-10-12.39-18.58-13.55-5.08-1.73-10-1.1-14.83,1h0a26.92,26.92,0,0,0-18.11,26A27.39,27.39,0,0,0,362.63,403.55Z"/><path class="cls-9" d="M175.89,100.77c-8.78-7.49-18.94-8.83-29.4-4S131.11,110.06,130.72,119c-.12,20.83,17.09,34,34.84,28.82,3.65-1.07,5.7-.3,8.18,2.25,9.16,9.43,18.5,18.69,27.9,27.89a8.87,8.87,0,0,1,3,7c-.14,7.16-.18,14.32,0,21.47.11,3.41-.95,5.31-4.1,7a26.79,26.79,0,0,0-14.09,27.52c2,13,12.1,22.76,24.61,23.73,13.27,1,25-6.75,28.82-19.12a27,27,0,0,0-13.33-32.27c-3-1.62-3.84-3.47-3.78-6.62.16-9-.07-18,.12-27A13.56,13.56,0,0,0,218.54,169c-10.69-10.5-21.12-21.25-31.84-31.71-2.69-2.63-3.33-4.78-2.27-8.62C187.43,117.81,184.53,108.12,175.89,100.77Z"/><path class="cls-10" d="M112.68,211.79a27.5,27.5,0,0,0-37.31,37.8,27,27,0,0,0,31.47,12.24c3.52-1.1,5.43-.19,7.75,2.16C127,276.57,139.53,289,152,301.52c2.56,2.58,5.25,4.39,9.11,4.38q47.72-.11,95.43-.07c2.35,0,4.69-.13,6.44-2.05,1.36-1.2,2.77-2.35,4.05-3.63q17.29-17.23,34.54-34.49c1.49-1.48,2.72-3.51,5.34-3h0A26.94,26.94,0,0,0,338,254.83a27.48,27.48,0,0,0-28.36-44.05,27.37,27.37,0,0,0-20.14,24.61c-.34,4.94,1,9.56,2.31,14.19-11.67,11.57-23.4,23.08-34.95,34.77a10.56,10.56,0,0,1-8.28,3.38c-28.24-.13-56.47-.06-84.7-.06-12.1-12.15-24.12-24.39-36.37-36.39-2.59-2.55-3.2-4.63-2.15-8.2A27,27,0,0,0,112.68,211.79Z"/><path class="cls-10" d="M534.63,122.54c-3.72,1-6,.46-8.64-2.26-13.18-13.37-26.59-26.5-39.92-39.72A89.29,89.29,0,0,0,475,69.46h0c-2.85-4.34-7-5.63-12-5.62-43.46.1-86.93,0-130.39.13-4.37,0-7-.81-9.45-5.11-6.32-11.26-19.82-15.82-32-11.75s-19.56,15.65-18.44,28.8A27.33,27.33,0,0,0,296,100.36a27,27,0,0,0,28.91-16.51h0c2-2.13,4.67-1.41,7.09-1.41,38.29,0,76.58.34,114.86-.27,10.53-.17,19.21,1.34,25.56,10.23a1.47,1.47,0,0,0,.4.29c13.48,13.55,26.88,27.17,40.49,40.59,2.57,2.53,3.16,4.56,2.13,8.16-5.55,19.37,11.61,38.54,30.38,34.25,11.11-1.4,18.11-7.76,21.82-18.08,3.21-10.2,1.46-19.49-5.76-27.35C554.5,122.22,545.1,119.67,534.63,122.54ZM325.19,83.34l-.25.51A2.69,2.69,0,0,1,325.19,83.34Z"/></svg>