<svg id="Capa_1" data-name="Capa 1" xmlns="http://www.w3.org/2000/svg" viewBox="0 0 800 1024"><defs><style>.cls-1{font-size:373.32px;font-family:DINCondensed-Bold, DIN Condensed;font-weight:700;}.cls-1,.cls-3{fill:#63c4d9;}.cls-2{fill:#25387f;}</style></defs><title>Mesa de trabajo 1</title><text class="cls-1" transform="translate(54.07 988.16)">SUR<tspan class="cls-2" x="469.63" y="0">iA</tspan></text><path class="cls-2" d="M789.11,206.62c0-3.75-1-7-3.65-9.69l-37-36.65L742.28,154,613.43,24.9A12.87,12.87,0,0,0,604,20.77q-80.87.12-161.73.19H423.45c-1-.07-2.08-.2-3.12-.2q-101,0-202-.07c-5.28,0-9,2.18-12.61,5.77q-46,46.22-92.14,92.35c-2.8,2.82-5.11,3.8-9.22,2.57C88.89,116.72,73.3,122.72,65.07,136a34.46,34.46,0,0,0,43.8,49.51c14.07-6.48,21.49-20.54,19.29-36.56.29-4.64-4.69-9.78,1.33-13.87q43.33-43.18,86.62-86.44a15.5,15.5,0,0,1,12-5.07q182.36.19,364.7,0a14.84,14.84,0,0,1,11.55,4.73q78.87,79.14,158,158a12,12,0,0,1,3.89,9.35c-.14,27-1,54,.29,81,.7,14.91-2.91,26.19-14.83,35.17-3.16,2.39-5.25,3.39-9.31,2.22-25.78-7.43-49.53,15.14-43.33,40.88A34.4,34.4,0,0,0,741,400.33c19.3-5,30.28-24,24.53-43.34-1.21-4.05-.68-6.49,2.35-9.26,5.56-5.07,10.71-10.59,16.11-15.84a15.46,15.46,0,0,0,5.12-11.66Q789,263.43,789.11,206.62ZM426.47,21.49c-.41,0-.82,0-1.23-.1Z"/><path class="cls-2" d="M318.54,412.4A33.75,33.75,0,0,0,280,428.75c-2.22,4-4.53,5.53-9.15,5.51q-60.24-.28-120.49-.05a12.74,12.74,0,0,1-9.92-4q-40-40.31-80.31-80.32A12.74,12.74,0,0,1,55.89,340q.22-35.76,0-71.54c0-4,1-6.3,4.79-8.33,14.48-7.73,21.22-23.28,17.36-38.7a34.5,34.5,0,0,0-66.8-.41c-4.19,15.52,2.61,31.27,17.36,39.23,3.51,1.89,4.54,4,4.48,7.82-.21,13.39-.08,26.78-.08,40.17,0,12.76.21,25.52-.09,38.27-.14,6.13,1.93,10.69,6.26,15q44.31,44,88.25,88.36c5.25,5.33,10.77,7.69,18.25,7.64,41.42-.25,82.84-.06,124.26-.23,4.88,0,7.76,1.16,10.32,5.79,7.64,13.88,23.53,20.1,38.7,16a34.48,34.48,0,0,0-.41-66.61Z"/><path class="cls-2" d="M729.8,420.4A34.56,34.56,0,0,0,713,485c7.19,4.09,7.53,6.14,1.71,12-13.28,13.35-26.71,26.55-39.86,40-3.22,3.3-6.6,4.46-11.09,4.41-17.78-.19-35.57.07-53.35-.17a19.16,19.16,0,0,0-15,6.31Q574,569.59,552,591.05A21.09,21.09,0,0,0,545,607.64c.27,31.8,0,63.6.2,95.4,0,4.06-1.14,6.26-4.84,8.26a34.27,34.27,0,0,0,15.91,64.55c15.92.06,29.54-10.12,33.61-25.11S587.75,719.44,574,712c-4.89-2.64-6.17-5.62-6.05-10.77.31-14.43.11-28.87.11-43.31,0-14.85.13-29.71-.09-44.56a12.41,12.41,0,0,1,4.2-9.85q17.75-17.32,35.07-35.06a12.48,12.48,0,0,1,9.87-4.14c18.41.2,36.82,0,55.23.13a16.71,16.71,0,0,0,12.87-5.23q25.4-25.65,51.05-51c3.71-3.65,5.78-7.69,5.19-12.82s1-8.11,5.94-10.78c13.84-7.51,20-23.55,16-38.74A34.74,34.74,0,0,0,729.8,420.4Z"/><path class="cls-2" d="M436.52,359.79c-3,3-5.4,4-9.77,2.65A33.94,33.94,0,0,0,387.25,378a34.54,34.54,0,0,0,47.06,47.29A33.87,33.87,0,0,0,450,385.85c-1.4-4.62-.2-7.12,2.93-10.23,34.73-34.51,69.25-69.25,104-103.71,5-5,7.26-10.11,7.1-17.18-.4-16.94,0-33.9-.22-50.85-.07-4.49,1.14-7,5.32-9.23a34,34,0,0,0,14.92-43.78,34.42,34.42,0,0,0-42.28-19c-16.72,5.33-26.29,21.89-22.86,39.56a10.81,10.81,0,0,0,2.08,6.75h0c2.78,8,8.46,13.41,15.76,17,3.36,1.67,4.39,3.76,4.36,7.32-.15,15.06-.28,30.14.06,45.2.12,5.28-1.54,8.95-5.26,12.63Q486.07,309.91,436.52,359.79Z"/><path class="cls-3" d="M716.94,303.86a34.49,34.49,0,0,0-1.38-66.26A33.76,33.76,0,0,0,677,253.88c-2.39,4.35-4.93,5.75-9.69,5.64-13.38-.32-26.78,0-40.16-.19a17.93,17.93,0,0,0-13.9,5.8c-27.87,28.05-56,55.85-83.74,84-4.54,4.6-8.29,6.3-15,4.52-14.85-4-30.3,3.79-37.44,17.42s-4.26,30.7,6.72,41a34.69,34.69,0,0,0,42.35,4.16c12.87-8,19.17-24.25,14.36-38.83-1.47-4.46-.25-6.85,2.67-9.74,23.31-23.14,47-45.92,69.53-69.8,10.92-11.58,21.79-19.89,38.5-15.54,5.44,0,10.9.28,16.31-.09,4.54-.31,7,1.17,9.27,5.32A33.89,33.89,0,0,0,716.94,303.86Z"/><path class="cls-3" d="M504.13,644.24c-4.09-2.19-5.05-4.72-5-8.85.16-13.38-.32-26.78.18-40.14.29-7.94-2.15-13.76-7.87-19.37-25.26-24.73-50-50-75.22-74.74-4.22-4.15-6.28-7.75-3.7-13.48,1-2.19.79-4.91.91-5.76.19-21.59-16.8-37.8-36.41-36.38-20.36,1.48-35.27,19.76-32.1,39.37,3.31,20.56,22.72,33.82,42.44,28.34,5.52-1.53,8.64-.25,12.39,3.55q35.92,36.39,72.3,72.32a13.19,13.19,0,0,1,4.28,10.48q-.34,18.2,0,36.39c.07,4-1,6.2-4.83,8.21a33.79,33.79,0,0,0-17.1,38.8,34.51,34.51,0,0,0,66.65.68A33.89,33.89,0,0,0,504.13,644.24Z"/><path class="cls-3" d="M271.5,67.54a34.52,34.52,0,0,0-46.66,47.66,33.92,33.92,0,0,0,39,15.43c4.48-1.35,7.07-.61,10.27,2.62,25.31,25.58,50.89,50.89,76.19,76.48a19.25,19.25,0,0,0,15,6.14c19-.24,38.08.08,57.12-.21,5.55-.08,8.91,1.09,11.82,6.52,6.51,12.18,20.56,18.35,34,16.29,14.21-2.17,24.85-11.67,28.14-25.11a6.19,6.19,0,0,0,.27-1c2.17-8.14,1.82-16-2.84-23.44-6.12-12.55-16.42-18.66-30.12-18.84s-24.11,6.19-30.61,18.25c-1.86,3.45-3.85,4.69-7.72,4.65q-27-.3-54,0a11.9,11.9,0,0,1-9.31-4q-35.37-35.62-71-71c-3.67-3.62-4.91-6.53-3.37-11.85C292.09,91,285.15,75.29,271.5,67.54Z"/><path class="cls-3" d="M448.22,509.17c15,4,30.69-2,38.3-15.56,2.82-5,6.05-6.39,11.37-6.22,10.66.34,21.33,0,32,.13a18,18,0,0,0,13.94-5.78c12.41-12.73,26-24.39,37.39-38,11.63-13.93,24.81-20.2,42.82-17.62,5,.71,8,1.38,10.67,6.18,8.58,15.52,28,21.3,44.11,13.84s24.07-26.19,17.92-42.73c-5.15-13.83-15.44-21.82-30.16-22.86-13.9-1-25.05,4.83-31.92,17-2.72,4.81-5.66,6.25-10.83,6-8.77-.38-17.57.1-26.34-.17-5.66-.17-9.94,1.75-13.9,5.78-16.73,17-33.75,33.68-50.46,50.7a13.52,13.52,0,0,1-11,4.48c-8.78-.3-17.58-.25-26.35,0-4,.11-6.34-1-8.34-4.78-4.94-9.31-12.49-15.56-23.34-17-6.38-2.18-12.56-1.38-18.62,1.19h0a33.82,33.82,0,0,0-22.74,32.67A34.4,34.4,0,0,0,448.22,509.17Z"/><path class="cls-2" d="M213.69,128.9c-11-9.4-23.79-11.08-36.92-5-13,6-19.32,16.7-19.81,27.91-.15,26.16,21.46,42.73,43.76,36.19,4.57-1.34,7.16-.37,10.27,2.83,11.51,11.85,23.24,23.48,35,35a11.12,11.12,0,0,1,3.73,8.81c-.17,9-.23,18,0,27,.13,4.27-1.2,6.66-5.16,8.76a33.63,33.63,0,0,0-17.69,34.56c2.46,16.32,15.19,28.59,30.9,29.81,16.67,1.3,31.41-8.48,36.2-24a33.88,33.88,0,0,0-16.74-40.54c-3.81-2-4.82-4.35-4.75-8.3.21-11.29-.09-22.58.15-33.87a17,17,0,0,0-5.45-13.38c-13.42-13.19-26.53-26.69-40-39.83-3.38-3.3-4.18-6-2.85-10.82C228.18,150.31,224.54,138.14,213.69,128.9Z"/><path class="cls-3" d="M134.3,268.34a34.53,34.53,0,0,0-46.85,47.48A34,34,0,0,0,127,331.19c4.42-1.39,6.82-.24,9.73,2.71C152.26,349.69,168,365.29,183.63,381c3.22,3.24,6.6,5.51,11.45,5.5q59.92-.13,119.85-.08c2.95,0,5.89-.16,8.09-2.58,1.7-1.51,3.48-3,5.09-4.56q21.7-21.65,43.37-43.32c1.87-1.86,3.41-4.41,6.71-3.79h0a33.84,33.84,0,0,0,39.12-9.81,34.52,34.52,0,0,0-35.62-55.32A34.37,34.37,0,0,0,356.4,298c-.43,6.2,1.19,12,2.9,17.81-14.65,14.54-29.38,29-43.9,43.67a13.21,13.21,0,0,1-10.4,4.25c-35.46-.16-70.91-.08-106.37-.07C183.43,348.38,168.34,333,153,317.93c-3.26-3.2-4-5.81-2.7-10.29A34,34,0,0,0,134.3,268.34Z"/><path class="cls-3" d="M664.23,156.24c-4.67,1.28-7.47.58-10.84-2.83-16.56-16.79-33.4-33.28-50.15-49.88a111.61,111.61,0,0,0-13.9-13.94h0c-3.58-5.45-8.73-7.08-15.08-7.06-54.58.12-109.17,0-163.76.16-5.49,0-8.84-1-11.87-6.42-7.94-14.14-24.89-19.86-40.22-14.75s-24.56,19.64-23.16,36.16c1.33,15.58,13.39,28.22,29.31,30.71a33.88,33.88,0,0,0,36.31-20.73h0c2.55-2.68,5.87-1.77,8.9-1.78,48.09,0,96.18.43,144.25-.33,13.23-.21,24.14,1.68,32.11,12.85a1.79,1.79,0,0,0,.51.36c16.92,17,33.75,34.12,50.84,51,3.23,3.19,4,5.74,2.68,10.25-7,24.33,14.58,48.41,38.16,43,13.95-1.77,22.73-9.75,27.39-22.71,4-12.81,1.84-24.49-7.23-34.35C689.2,155.85,677.39,152.65,664.23,156.24ZM401.19,107l-.31.63A5.27,5.27,0,0,1,401.19,107Z"/></svg>